<svg width="12" height="8" viewBox="0 0 12 8" fill="none" xmlns="http://www.w3.org/2000/svg">
<path d="M0.293762 0.999964C0.386276 0.90726 0.496165 0.833713 0.617138 0.783531C0.738111 0.73335 0.867794 0.70752 0.998762 0.70752C1.12973 0.70752 1.25941 0.73335 1.38039 0.783531C1.50136 0.833713 1.61125 0.90726 1.70376 0.999964L5.58376 4.87996L9.46376 0.999964C9.65074 0.812987 9.90434 0.707943 10.1688 0.707943C10.4332 0.707943 10.6868 0.812987 10.8738 0.999964C11.0607 1.18694 11.1658 1.44054 11.1658 1.70496C11.1658 1.96939 11.0607 2.22299 10.8738 2.40996L6.28376 6.99996C6.19125 7.09267 6.08136 7.16622 5.96039 7.2164C5.83941 7.26658 5.70973 7.29241 5.57876 7.29241C5.44779 7.29241 5.31811 7.26658 5.19714 7.2164C5.07616 7.16622 4.96628 7.09267 4.87376 6.99996L0.283762 2.40996C-0.096238 2.02996 -0.0962377 1.38996 0.293762 0.999964Z" fill="black"/>
</svg>
